# AST/ASF file generated using VICON BodyLanguage
# -----------------------------------------------
:version 1.10
:name VICON
:units
  mass 1.0
  length 0.45
  angle deg
:documentation
   .ast/.asf automatically generated from VICON data using
   VICON BodyBuilder and BodyLanguage model FoxedUp or BRILLIANT.MOD
:root
   order TX TY TZ RX RY RZ
   axis XYZ
   position 0 0 0  
   orientation 0 0 0 
:bonedata
  begin
     id 1 
     name lhipjoint
     direction 0.578396 -0.714046 0.394458 
     length 2.21935 
     axis 0 0 0  XYZ
  end
  begin
     id 2 
     name lfemur
     direction 0.34202 -0.939693 0  
     length 6.39105  
     axis 0 0 20  XYZ
    dof rx ry rz
    limits (-160.0 20.0)
           (-70.0 70.0)
           (-60.0 70.0)
  end
  begin
     id 3 
     name ltibia
     direction 0.34202 -0.939693 0   
     length 6.99037   
     axis 0 0 20   XYZ
    dof rx
    limits (-10.0 170.0)
  end
  begin
     id 4 
     name lfoot
     direction 0.0582372 -0.160005 0.985397   
     length 2.06111   
     axis -90 7.62852e-016 20   XYZ
    dof rx rz
    limits (-45.0 90.0)
           (-70.0 20.0)
  end
  begin
     id 5 
     name ltoes
     direction 1.53556e-011 -4.21875e-011 1   
     length 1.04074   
     axis -90 7.62852e-016 20   XYZ
    dof rx
    limits (-90.0 20.0)
  end
  begin
     id 6 
     name rhipjoint
     direction -0.558179 -0.726269 0.40121   
     length 2.182  
     axis 0 0 0  XYZ 
  end
  begin
     id 7 
     name rfemur
     direction -0.34202 -0.939693 0   
     length 6.51172   
     axis 0 0 -20   XYZ
    dof rx ry rz
    limits (-160.0 20.0)
           (-70.0 70.0)
           (-70.0 60.0)
  end
  begin
     id 8 
     name rtibia
     direction -0.34202 -0.939693 0   
     length 7.02607   
     axis 0 0 -20   XYZ
    dof rx
    limits (-10.0 170.0)
 end
 begin
     id 9 
     name rfoot
     direction -0.0788856 -0.216737 0.973038   
     length 1.96734  
     axis -90 -7.62852e-016 -20   XYZ
    dof rx rz
    limits (-45.0 90.0)
           (-20.0 70.0)
  end
  begin
     id 10 
     name rtoes
     direction -1.53567e-011 -4.21783e-011 1   
     length 0.990825   
     axis -90 -7.62852e-016 -20   XYZ
    dof rx
    limits (-90.0 20.0)
  end
  begin
     id 11 
     name lowerback
     direction 0.00668177 0.999323 -0.0361741   
     length 1.7655   
     axis 0 0 0   XYZ
    dof rx ry rz
    limits (-20.0 45.0)
           (-30.0 30.0)
           (-30.0 30.0)
  end
  begin
     id 12 
     name upperback
     direction -0.00222086 0.99851 0.0545167   
     length 1.74912   
     axis 0 0 0   XYZ
    dof rx ry rz
    limits (-20.0 45.0)
           (-30.0 30.0)
           (-30.0 30.0)
  end
  begin
     id 13 
     name thorax
     direction -0.00733971 0.997496 0.0703443   
     length 1.75715   
     axis 0 0 0   XYZ
    dof rx ry rz
    limits (-20.0 45.0)
           (-30.0 30.0)
           (-30.0 30.0)
  end
  begin
     id 14 
     name lowerneck
     direction 0.0279797 0.994795 0.0979765   
     length 1.46939   
     axis 0 0 0   XYZ
    dof rx ry rz
    limits (-20.0 45.0)
           (-30.0 30.0)
           (-30.0 30.0)
  end
  begin
     id 15 
     name upperneck
     direction 0.00339187 0.976776 -0.214238   
     length 1.48018   
     axis 0 0 0   XYZ
    dof rx ry rz
    limits (-20.0 45.0)
           (-30.0 30.0)
           (-30.0 30.0)
  end
  begin
     id 16
     name head
     direction -0.00263506 0.996603 -0.0823096  
     length 1.4976  
     axis 0 0 0   XYZ
    dof rx ry rz
    limits (-20.0 45.0)
           (-30.0 30.0)
           (-30.0 30.0)
  end
  begin
     id 17 
     name lclavicle
     direction 0.894044 0.44508 -0.0508781  
     length 3.03024  
     axis 0 0 0   XYZ
    dof ry rz
    limits (-20.0 10.0)
           (0.0 20.0)
  end
  begin
     id 18 
     name lhumerus
     direction 1 -4.48961e-011 -2.39475e-018   
     length 4.4661   
     axis 180 -30 -90   XYZ
    dof rx ry rz
    limits (-60.0 90.0)
           (-90.0 90.0)
           (-90.0 90.0)
  end
  begin
     id 19
     name lradius
     direction 1 -4.48961e-011 9.29328e-028   
     length 3.41414   
     axis 180 -30 -90   XYZ
    dof rx
    limits (-10.0 170.0)
  end
  begin
     id 20
     name lwrist
     direction 1 -4.48985e-011 1.53461e-026   
     length 1.70707   
     axis -1.09697e-014 90 90   XYZ
    dof ry
    limits (-180.0 0.0)
 end
  begin
     id 21 
     name lhand
     direction 1 -4.48966e-011 3.06923e-026   
     length 0.328298   
     axis -1.95843e-014 90 90   XYZ
    dof rx rz
    limits (-90.0 90.0)
           (-45.0 45.0)
  end
  begin
     id 22 
     name lfingers
     direction 1 -4.48893e-011 6.13845e-026   
     length 0.264682   
     axis -3.91686e-014 90 90   XYZ
    dof rx
    limits (0.0 90.0)
  end
  begin
     id 23
     name lthumb
     direction 0.707107 -6.34876e-011 0.707107   
     length 0.380032   
     axis -90 45 2.85299e-015   XYZ
    dof rx rz
    limits (-45.0 45.0)
           (-45.0 45.0)
  end
  begin
     id 24 
     name rclavicle
     direction -0.936955 0.347862 -0.0332887   
     length 3.26927  
     axis 0 0 0   XYZ 
    dof ry rz
    limits (-10.0 20.0)
           (-20.0 0.0)
  end
  begin
     id 25 
     name rhumerus
     direction -1 -4.4896e-011 1.78637e-018  
     length 4.40431   
     axis 180 30 90   XYZ
    dof rx ry rz
    limits (-90.0 60.0)
           (-90.0 90.0)
           (-90.0 90.0)
  end
  begin
     id 26 
     name rradius
     direction -1 -4.48955e-011 9.34036e-027   
     length 3.04688   
     axis 180 30 90   XYZ
    dof rx
    limits (-10.0 170.0)
  end
  begin
     id 27 
     name rwrist
     direction -1 -4.49011e-011 1.53461e-026   
     length 1.52344   
     axis -1.09697e-014 -90 -90   XYZ
    dof ry
    limits (-180.0 0.0)
  end
  begin
     id 28
     name rhand
     direction -1 -4.48834e-011 3.06923e-026   
     length 0.500489   
     axis -1.95843e-014 -90 -90   XYZ
    dof rx rz
    limits (-90.0 90.0)
           (-45.0 45.0)
  end
  begin
     id 29
     name rfingers
     direction -1 -4.48967e-011 6.13845e-026   
     length 0.403507   
     axis -3.91686e-014 -90 -90   XYZ
    dof rx
    limits (0.0 90.0)
  end
  begin
     id 30
     name rthumb
     direction -0.707107 -6.34826e-011 0.707107   
     length 0.579358   
     axis -90 -45 -2.85299e-015   XYZ
    dof rx rz
    limits (-45.0 45.0)
           (-45.0 45.0)
  end
:hierarchy
  begin
    root lhipjoint rhipjoint lowerback
    lhipjoint lfemur
    lfemur ltibia
    ltibia lfoot
    lfoot ltoes
    rhipjoint rfemur
    rfemur rtibia
    rtibia rfoot
    rfoot rtoes
    lowerback upperback
    upperback thorax
    thorax lowerneck lclavicle rclavicle
    lowerneck upperneck
    upperneck head
    lclavicle lhumerus
    lhumerus lradius
    lradius lwrist
    lwrist lhand lthumb
    lhand lfingers
    rclavicle rhumerus
    rhumerus rradius
    rradius rwrist
    rwrist rhand rthumb
    rhand rfingers
  end

#!OML:ASF H:\IndianDance\Patient Classification 1\Patient 1\Session 1\dancer.ASF
:FULLY-SPECIFIED
:DEGREES
1242
root 4.74065 13.9507 3.1843 -172.837 0.577676 -177.006
lowerback 8.06196 4.42045 -1.81916
upperback -8.50542 6.66796 2.21962
thorax -14.4115 3.72522 2.03521
lowerneck -16.7627 7.37697 5.59895
upperneck 18.0234 9.05202 -2.2442
head 8.75399 4.35077 -0.5349
rclavicle 6.23687e-014 -2.38542e-015
rhumerus -35.6814 53.6787 -68.9517
rradius 98.3571
rwrist -79.0177
rhand 34.5715 -2.89997
rfingers 7.12502
rthumb 57.7633 -18.8319
lclavicle 6.23687e-014 -2.38542e-015
lhumerus 53.378 25.7333 9.91556
lradius 50.0116
lwrist -33.1944
lhand -60.5449 92.8877
lfingers 7.12502
lthumb -32.6705 -65.8185
rfemur -45.9527 -30.9966 18.1522
rtibia 76.0505
rfoot -14.7838 -0.743158
rtoes 4.98153
lfemur -38.7152 24.5255 -20.1725
ltibia 67.4401
lfoot -30.1144 13.2576
ltoes 3.63598
1243
root 4.70101 13.9576 3.1869 -172.883 1.14438 -177.023
lowerback 8.2717 4.61317 -1.50799
upperback -8.54425 6.90582 1.83154
thorax -14.507 3.76517 1.36752
lowerneck -16.791 7.67197 5.65666
upperneck 18.0417 9.32653 -1.70408
head 8.75153 4.54294 -0.325065
rclavicle -8.09054e-014 -7.95139e-015
rhumerus -36.2258 53.757 -69.8024
rradius 98.294
rwrist -78.9472
rhand 34.5205 -2.89326
rfingers 7.12502
rthumb 57.7186 -18.8645
lclavicle -8.09054e-014 -7.95139e-015
lhumerus 53.3024 25.8397 9.9705
lradius 49.825
lwrist -33.1398
lhand -60.5793 92.8588
lfingers 7.12502
lthumb -32.7031 -65.7964
rfemur -46.9436 -30.8391 17.9466
rtibia 76.9879
rfoot -13.0576 0.118428
rtoes 6.99757
lfemur -38.5158 24.8915 -20.3669
ltibia 67.3012
lfoot -30.2154 13.3657
ltoes 3.96756
1244
root 4.6626 13.9662 3.18926 -172.912 1.71774 -177.051
lowerback 8.48013 4.79649 -1.22505
upperback -8.59513 7.13348 1.45217
thorax -14.6157 3.80504 0.726055
lowerneck -16.8251 7.97271 5.71001
upperneck 18.0815 9.61174 -1.1824
head 8.75717 4.73687 -0.118946
rclavicle -3.9086e-014 -2.46493e-014
rhumerus -36.7146 53.8916 -70.5998
rradius 98.2359
rwrist -78.9122
rhand 34.4936 -2.88249
rfingers 7.12502
rthumb 57.6951 -18.8744
lclavicle -3.9086e-014 -2.46493e-014
lhumerus 53.1697 25.9376 9.98133
lradius 49.6334
lwrist -33.0957
lhand -60.6063 92.9426
lfingers 7.12502
lthumb -32.7289 -65.8856
rfemur -48.009 -30.682 17.779
rtibia 77.8858
rfoot -11.3192 0.941747
rtoes 9.2504
lfemur -38.3304 25.2263 -20.5811
ltibia 67.1388
lfoot -30.3017 13.5079
ltoes 4.32017
1245
root 4.62613 13.9763 3.19127 -172.921 2.27801 -177.099
lowerback 8.68481 4.9645 -0.983886
upperback -8.65847 7.34029 1.07931
thorax -14.7385 3.84084 0.117633
lowerneck -16.8629 8.27922 5.76462
upperneck 18.1391 9.90761 -0.684386
head 8.76977 4.93261 0.08091
rclavicle -9.4696e-014 -3.47376e-014
rhumerus -37.149 54.0729 -71.3475
rradius 98.1794
rwrist -78.9005
rhand 34.4926 -2.86595
rfingers 7.12502
rthumb 57.6942 -18.8586
lclavicle -9.4696e-014 -3.47376e-014
lhumerus 52.984 26.0325 9.94757
lradius 49.435
lwrist -33.0684
lhand -60.634 93.0697
lfingers 7.12502
lthumb -32.7552 -66.0182
rfemur -49.1404 -30.5514 17.6531
rtibia 78.7317
rfoot -9.64312 1.67968
rtoes 11.6434
lfemur -38.1626 25.5184 -20.8224
ltibia 66.9504
lfoot -30.3708 13.6738
ltoes 4.70027
1246
root 4.59198 13.9879 3.19292 -172.912 2.80784 -177.171
lowerback 8.8872 5.11275 -0.787774
upperback -8.73489 7.51913 0.710927
thorax -14.8783 3.86922 -0.457476
lowerneck -16.9076 8.59037 5.81085
upperneck 18.2141 10.2124 -0.198149
head 8.78854 5.13011 0.279983
rclavicle -9.11925e-014 -2.3879e-014
rhumerus -37.5388 54.2863 -72.0552
rradius 98.1217
rwrist -78.8921
rhand 34.5158 -2.84288
rfingers 7.12502
rthumb 57.7145 -18.8177
lclavicle -9.11925e-014 -2.3879e-014
lhumerus 52.7547 26.1295 9.871
lradius 49.2283
lwrist -33.0634
lhand -60.6452 93.1672
lfingers 7.12502
lthumb -32.7659 -66.1179
rfemur -50.324 -30.4693 17.5755
rtibia 79.5132
rfoot -8.10973 2.25609
rtoes 14.036
lfemur -38.0118 25.7618 -21.0917
ltibia 66.7343
lfoot -30.4167 13.8637
ltoes 5.08238
1247
root 4.56044 14.0007 3.19405 -172.885 3.29417 -177.26
lowerback 9.08529 5.23826 -0.629076
upperback -8.82453 7.66681 0.345864
thorax -15.0342 3.88779 -1.00432
lowerneck -16.9571 8.90309 5.8535
upperneck 18.3002 10.5204 0.278101
head 8.81095 5.32742 0.477258
rclavicle 3.17807e-014 6.95746e-016
rhumerus -37.8955 54.5146 -72.7317
rradius 98.0633
rwrist -78.8742
rhand 34.5555 -2.80906
rfingers 7.12502
rthumb 57.7493 -18.7533
lclavicle 3.17807e-014 6.95746e-016
lhumerus 52.487 26.2305 9.76098
lradius 49.0228
lwrist -33.0872
lhand -60.6344 93.1541
lfingers 7.12502
lthumb -32.7556 -66.1026
rfemur -51.543 -30.4496 17.5628
rtibia 80.214
rfoot -6.8229 2.59301
rtoes 16.2779
lfemur -37.8777 25.9587 -21.3781
ltibia 66.4906
lfoot -30.4371 14.0572
ltoes 5.46658
1248
root 4.5316 14.0151 3.19441 -172.845 3.73124 -177.365
lowerback 9.27935 5.34036 -0.504448
upperback -8.92491 7.78188 -0.0182721
thorax -15.2036 3.89516 -1.5272
lowerneck -17.0102 9.21511 5.89326
upperneck 18.3921 10.8278 0.747401
head 8.83468 5.52329 0.672999
rclavicle 4.4155e-014 2.26615e-014
rhumerus -38.2265 54.7419 -73.394
rradius 97.9946
rwrist -78.8338
rhand 34.6033 -2.76446
rfingers 7.12502
rthumb 57.7911 -18.6719
lclavicle 4.4155e-014 2.26615e-014
lhumerus 52.1874 26.3377 9.6271
lradius 48.8255
lwrist -33.1416
lhand -60.6148 92.9815
lfingers 7.12502
lthumb -32.7369 -65.9261
rfemur -52.7745 -30.4953 17.6173
rtibia 80.8155
rfoot -5.86317 2.63056
rtoes 18.2192
lfemur -37.7518 26.1196 -21.6767
ltibia 66.2166
lfoot -30.4358 14.2333
ltoes 5.86574
1249
root 4.50522 14.0308 3.19391 -172.794 4.11716 -177.486
lowerback 9.46688 5.42017 -0.405393
upperback -9.03418 7.86625 -0.385308
thorax -15.3822 3.89109 -2.03516
lowerneck -17.0607 9.5243 5.92828
upperneck 18.478 11.1315 1.21533
head 8.85416 5.71692 0.86826
rclavicle -4.39314e-014 -2.06736e-014
rhumerus -38.549 54.961 -74.0443
rradius 97.9307
rwrist -78.7764
rhand 34.6395 -2.70846
rfingers 7.12502
rthumb 57.8227 -18.5879
lclavicle -4.39314e-014 -2.06736e-014
lhumerus 51.8741 26.4541 9.48142
lradius 48.6256
lwrist -33.2223
lhand -60.5804 92.6502
lfingers 7.12502
lthumb -32.7042 -65.588
rfemur -54.0026 -30.6051 17.7422
rtibia 81.297
rfoot -5.27839 2.32288
rtoes 19.7983
lfemur -37.6319 26.2551 -21.9868
ltibia 65.9107
lfoot -30.4093 14.3852
ltoes 6.25261
1250
root 4.48122 14.0484 3.19233 -172.735 4.45608 -177.62
lowerback 9.64725 5.48036 -0.326491
upperback -9.15023 7.92391 -0.756499
thorax -15.567 3.8768 -2.53332
lowerneck -17.1025 9.82869 5.95598
upperneck 18.5491 11.4289 1.68705
head 8.86466 5.90761 1.06403
rclavicle -3.37934e-014 -7.95139e-015
rhumerus -38.8723 55.1603 -74.6932
rradius 97.8704
rwrist -78.705
rhand 34.6529 -2.64326
rfingers 7.12502
rthumb 57.8344 -18.5124
lclavicle -3.37934e-014 -7.95139e-015
lhumerus 51.5514 26.5784 9.33211
lradius 48.4265
lwrist -33.318
lhand -60.5376 92.1266
lfingers 7.12502
lthumb -32.6635 -65.056
rfemur -55.2051 -30.7612 17.9317
rtibia 81.6361
rfoot -5.07716 1.66092
rtoes 21.113
lfemur -37.5072 26.3822 -22.3022
ltibia 65.5673
lfoot -30.3535 14.5035
ltoes 6.58679
1251
root 4.45933 14.0682 3.18945 -172.672 4.75769 -177.771
lowerback 9.8177 5.52312 -0.267421
upperback -9.26995 7.95722 -1.13272
thorax -15.7529 3.85341 -3.02285
lowerneck -17.1267 10.1287 5.97433
upperneck 18.5951 11.7225 2.16178
head 8.86103 6.09632 1.25957
rclavicle 6.81831e-014 8.34896e-015
rhumerus -39.2015 55.3369 -75.3499
rradius 97.8129
rwrist -78.6242
rhand 34.6445 -2.57542
rfingers 7.12502
rthumb 57.827 -18.451
lclavicle 6.81831e-014 8.34896e-015
lhumerus 51.2161 26.708 9.18271
lradius 48.2386
lwrist -33.3997
lhand -60.492 91.4782
lfingers 7.12502
lthumb -32.6201 -64.3986
rfemur -56.3683 -30.9475 18.1752
rtibia 81.8099
rfoot -5.23027 0.67747
rtoes 22.1156
lfemur -37.3684 26.5139 -22.6255
ltibia 65.1822
lfoot -30.2719 14.5791
ltoes 6.90375
1252
root 4.4392 14.0905 3.1852 -172.608 5.03226 -177.939
lowerback 9.9781 5.55302 -0.224462
upperback -9.39006 7.97246 -1.51462
thorax -15.9357 3.82346 -3.50761
lowerneck -17.1319 10.4227 5.97465
upperneck 18.6115 12.0118 2.64477
head 8.84046 6.28275 1.45715
rclavicle -1.4889e-013 -5.1684e-014
rhumerus -39.5398 55.4892 -76.013
rradius 97.7631
rwrist -78.5483
rhand 34.6074 -2.50841
rfingers 7.12502
rthumb 57.7946 -18.4127
lclavicle -1.4889e-013 -5.1684e-014
lhumerus 50.878 26.844 9.04543
lradius 48.0507
lwrist -33.4568
lhand -60.4898 90.6959
lfingers 7.12502
lthumb -32.6181 -63.6159
rfemur -57.479 -31.1479 18.4598
rtibia 81.8015
rfoot -5.67747 -0.571777
rtoes 22.7719
lfemur -37.2075 26.6621 -22.9571
ltibia 64.7528
lfoot -30.1628 14.6245
ltoes 7.12248
1253
root 4.42051 14.1153 3.17952 -172.544 5.28976 -178.112
lowerback 10.1268 5.57303 -0.180832
upperback -9.50884 7.97668 -1.89943
thorax -16.1104 3.78876 -3.99474
lowerneck -17.12 10.712 5.96282
upperneck 18.6006 12.2993 3.12742
head 8.80502 6.46748 1.65326
rclavicle -7.45443e-014 -1.27222e-014
rhumerus -39.887 55.6134 -76.6881
rradius 97.7172
rwrist -78.4814
rhand 34.5474 -2.44359
rfingers 7.12502
rthumb 57.7422 -18.3941
lclavicle -7.45443e-014 -1.27222e-014
lhumerus 50.5413 26.9851 8.92069
lradius 47.8619
lwrist -33.4589
lhand -60.4973 270.098
lfingers 7.12502
lthumb -32.6251 -62.8239
rfemur -58.5204 -31.3381 18.7822
rtibia 81.5919
rfoot -6.3516 -1.9976
rtoes 23.143
lfemur -37.0201 26.8346 -23.2836
ltibia 64.2785
lfoot -30.0255 14.6435
ltoes 7.24622
1254
root 4.40295 14.1427 3.17245 -172.48 5.53986 -178.284
lowerback 10.2622 5.58792 -0.128404
upperback -9.62523 7.97807 -2.28425
thorax -16.2736 3.75251 -4.48694
lowerneck -17.0952 10.9946 5.92987
upperneck 18.5671 12.585 3.60804
head 8.75647 6.64959 1.84869
rclavicle -1.03169e-013 4.13472e-014
rhumerus -40.2426 55.7067 -77.3691
rradius 97.6741
rwrist -78.4286
rhand 34.4727 -2.3915
rfingers 7.12502
rthumb 57.6769 -18.3993
lclavicle -1.03169e-013 4.13472e-014
lhumerus 50.2122 27.1325 8.81895
lradius 47.6677
lwrist -33.4027
lhand -60.5077 270.793
lfingers 7.12502
lthumb -32.635 -62.1303
rfemur -59.485 -31.5049 19.1338
rtibia 81.171
rfoot -7.18825 -3.48312
rtoes 23.2125
lfemur -36.8075 27.0322 -23.601
ltibia 63.7633
lfoot -29.8648 14.6369
ltoes 7.30608
